<?xml version="1.0" encoding="UTF-8" standalone="no"?>
<!-- Created with Inkscape (http://www.inkscape.org/) by Toomai Glittershine for SmashWiki -->
<svg id="svg2" xmlns:rdf="http://www.w3.org/1999/02/22-rdf-syntax-ns#" xmlns="http://www.w3.org/2000/svg" version="1.1" xmlns:cc="http://creativecommons.org/ns#" xmlns:dc="http://purl.org/dc/elements/1.1/" xmlns:xlink="http://www.w3.org/1999/xlink"
		height="256" width="256"
		viewBox="0 0 256 256">
	<defs id="defs4">
		<linearGradient id="linearGradient4475">
			<stop id="stop4477" offset="0" style="stop-color:#ffffff;stop-opacity:1;" />
			<stop id="stop4479" offset="1" style="stop-color:#7f7f7f;stop-opacity:1;" />
		</linearGradient>
		<linearGradient id="linearGradient4174" xlink:href="#linearGradient4168" x1="14.180152" y1="145.57382" x2="242.80177" y2="143.69229" gradientUnits="userSpaceOnUse" />
		<linearGradient id="linearGradient4168">
			<stop id="stop4170" offset="0" style="stop-color:#ffffff;stop-opacity:1" />
			<stop id="stop4172" offset="1" style="stop-color:#ffffff;stop-opacity:0;" />
		</linearGradient>
		<linearGradient id="linearGradient4489" xlink:href="#linearGradient4483" x1="21.250942" y1="182.29042" x2="13.425223" y2="172.27487" gradientUnits="userSpaceOnUse" />
		<linearGradient id="linearGradient4483">
			<stop id="stop4485" offset="0" style="stop-color:#000000;stop-opacity:1;" />
			<stop id="stop4487" offset="1" style="stop-color:#7f7f7f;stop-opacity:1;" />
		</linearGradient>
		<linearGradient id="linearGradient4481" xlink:href="#linearGradient4475" x1="25.107727" y1="134.76025" x2="17.166044" y2="144.7981" gradientUnits="userSpaceOnUse" />
	</defs>
	<metadata id="metadata7">
		<rdf:RDF>
			<cc:Work rdf:about="">
				<dc:format>image/svg+xml</dc:format>
				<dc:type rdf:resource="http://purl.org/dc/dcmitype/StillImage"/>
				<dc:title/>
			</cc:Work>
		</rdf:RDF>
	</metadata>
	<g id="g4239">
		<path id="path3383" style="fill:#474747;fill-opacity:1;fill-rule:evenodd;stroke:none;"
			d="M 241.16351,168.10241 13.674277,184.28366 c -2.152016,0.15307 -4.91332,-2.4248 -4.5946376,-4.55859 l 5.9873826,-40.08943 c 0.415128,-2.77956 2.886703,-5.56426 5.597797,-6.30468 L 247.65783,71.33707 Z"
		/>
		<path id="path3364" style="fill:url(#linearGradient4174);fill-opacity:0.25;fill-rule:evenodd;stroke:none;"
			d="M 241.16351,168.10241 13.674277,184.28366 c -2.152016,0.15307 -4.91332,-2.4248 -4.5946376,-4.55859 l 5.9873826,-40.08943 c 0.415128,-2.77956 2.886703,-5.56426 5.597797,-6.30468 L 247.65783,71.33707 Z"
		/>
		<path id="path4466" style="opacity:0.25;fill:url(#linearGradient4489);fill-opacity:1;fill-rule:evenodd;stroke:none;"
			d="m 12.073242,159.67969 -2.9931639,20.04492 c -0.3186824,2.13379 2.4417339,4.71166 4.5937499,4.55859 l 227.490232,-16.18164 0.40625,-6.04297 -221.054685,15.72266 c -2.194353,0.15608 -4.658746,-2.80077 -4.333984,-4.97656 l 2.125976,-14.24512 z"
		/>
		<path id="path4458" style="opacity:0.25;fill:url(#linearGradient4481);fill-opacity:1;fill-rule:evenodd;stroke:none;"
			d="m 18.307617,158.55957 2.125977,-14.24512 c 0.40552,-2.71684 2.793461,-5.46381 5.443359,-6.1875 L 247.23242,77.673831 247.6582,71.337894 20.664062,133.33008 c -2.711094,0.74042 -5.182528,3.52513 -5.597656,6.30469 l -2.993164,20.04492 z"
		/>
		<path id="path3385" style="fill:#232323;fill-opacity:1;fill-rule:evenodd;stroke:none;"
			d="m 115.99904,121.145 0,39.239 c 0,0.47131 0.52837,0.99993 0.99968,0.99993 l 22.72954,7e-5 c 0.47136,0 0.99983,-0.52864 0.99983,-1 l 0,-6.628 c 0,-0.47139 -0.52844,-1.00011 -0.99983,-1.00011 L 126.871,152.756 c -0.47138,0 -0.99991,-0.52862 -0.99991,-1 l 0,-30.611 c 0,-0.47143 -0.52866,-1.00003 -1.00009,-1 l -7.87228,4.4e-4 c -0.47123,3e-5 -0.99968,0.52833 -0.99968,0.99956 z"
		/>
		<path id="path3352" style="fill:#353535;fill-opacity:1;fill-rule:evenodd;stroke:none;"
			d="m 116.998,124.14453 c -0.47123,3e-5 -0.99805,0.52877 -0.99805,1 l 0,35.24024 c 0,0.47131 0.52674,1 0.99805,1 l 22.72953,0 c 0.47136,0 1,-0.52864 1,-1 l 0,-2.62891 c 0,-0.47139 -0.52861,-1.00001 -1,-1 l -12.85644,0 c -0.47138,10e-6 -1,-0.52862 -1,-1 l 0,-30.61133 c 0,-0.47143 -0.52857,-1.00003 -1,-1 z"
		/>
	</g>
</svg>