<?xml version="1.0" encoding="UTF-8" standalone="no"?>
<svg
   xmlns:dc="http://purl.org/dc/elements/1.1/"
   xmlns:cc="http://creativecommons.org/ns#"
   xmlns:rdf="http://www.w3.org/1999/02/22-rdf-syntax-ns#"
   xmlns:svg="http://www.w3.org/2000/svg"
   xmlns="http://www.w3.org/2000/svg"
   xmlns:xlink="http://www.w3.org/1999/xlink"
   xmlns:sodipodi="http://sodipodi.sourceforge.net/DTD/sodipodi-0.dtd"
   xmlns:inkscape="http://www.inkscape.org/namespaces/inkscape"
   width="128"
   height="128"
   style="enable-background:new 0 0 128 128;"
   version="1.1"
   id="svg263"
   sodipodi:docname="star-grey.svg"
   inkscape:version="0.92.4 5da689c313, 2019-01-14">
  <metadata
     id="metadata269">
    <rdf:RDF>
      <cc:Work
         rdf:about="">
        <dc:format>image/svg+xml</dc:format>
        <dc:type
           rdf:resource="http://purl.org/dc/dcmitype/StillImage" />
      </cc:Work>
    </rdf:RDF>
  </metadata>
  <defs
     id="defs267">
    <filter
       style="color-interpolation-filters:sRGB;"
       inkscape:label="Greyscale"
       id="filter553">
      <feColorMatrix
         values="0.4 0.4 0.4 0 0 0.4 0.4 0.4 0 0 0.4 0.4 0.4 0 0 0 0 0 1 0 "
         id="feColorMatrix551" />
    </filter>
  </defs>
  <sodipodi:namedview
     pagecolor="#ffffff"
     bordercolor="#666666"
     borderopacity="1"
     objecttolerance="10"
     gridtolerance="10"
     guidetolerance="10"
     inkscape:pageopacity="0"
     inkscape:pageshadow="2"
     inkscape:window-width="1920"
     inkscape:window-height="1016"
     id="namedview265"
     showgrid="false"
     inkscape:zoom="1.84375"
     inkscape:cx="65.084746"
     inkscape:cy="64"
     inkscape:window-x="0"
     inkscape:window-y="27"
     inkscape:window-maximized="1"
     inkscape:current-layer="svg263" />
  <g
     id="图层_3"
     style="filter:url(#filter553)">
    <radialGradient
       id="SVGID_1_"
       cx="59.9364"
       cy="61.2342"
       fx="27.2158"
       fy="60.094"
       gradientTransform="matrix(1 0 0 1.0528 0 -6.5434)"
       gradientUnits="userSpaceOnUse"
       r="55.952">
      <stop
         offset="0"
         style="stop-color:#FFEB3B"
         id="stop2" />
      <stop
         offset="1"
         style="stop-color:#FBC02D"
         id="stop4" />
    </radialGradient>
    <path
       d="M67.53,6.66l12.36,37.48c0.46,1.39,1.69,2.34,3.09,2.37l37.64,0.81 c3.17,0.07,4.48,4.31,1.95,6.32L92.57,77.62c-1.11,0.89-1.58,2.41-1.18,3.82l10.9,37.99c0.92,3.2-2.51,5.82-5.11,3.91l-30.89-22.66 c-1.15-0.84-2.67-0.84-3.82,0l-30.89,22.66c-2.6,1.91-6.03-0.71-5.11-3.91l10.9-37.99c0.4-1.41-0.07-2.93-1.18-3.82L6.18,53.64 c-2.52-2.02-1.21-6.26,1.95-6.32l37.64-0.81c1.4-0.03,2.63-0.97,3.09-2.37L61.22,6.66C62.26,3.51,66.49,3.51,67.53,6.66z"
       style="fill:url(#SVGID_1_);"
       id="path7" />
    <g
       style="opacity:0.2;"
       id="g11">
      <path
         d="M64.38,9.86l11.72,35.54c0.99,2.99,3.72,5.05,6.8,5.11l36.22,0.78L90.07,74.5 c-2.39,1.91-3.38,5.07-2.53,8.05L98,118.98L68.65,97.45c-1.25-0.92-2.73-1.41-4.28-1.41c-1.54,0-3.02,0.49-4.28,1.41l-29.35,21.53 l10.46-36.44c0.85-2.98-0.14-6.14-2.53-8.05L9.64,51.28l36.22-0.78c3.08-0.07,5.82-2.12,6.8-5.11L64.38,9.86 M64.38,4.3 c-1.32,0-2.64,0.79-3.16,2.37L48.86,44.14c-0.46,1.39-1.69,2.34-3.09,2.37L8.13,47.31c-3.17,0.07-4.48,4.31-1.95,6.32l30.01,23.98 c1.11,0.89,1.58,2.41,1.18,3.82l-10.9,37.99c-0.7,2.45,1.14,4.55,3.21,4.55c0.64,0,1.29-0.2,1.9-0.65l30.89-22.66 c0.57-0.42,1.24-0.63,1.91-0.63s1.34,0.21,1.91,0.63l30.89,22.66c0.61,0.45,1.27,0.65,1.9,0.65c2.07,0,3.91-2.11,3.21-4.55 l-10.9-37.99c-0.4-1.41,0.07-2.93,1.18-3.82l30.01-23.98c2.52-2.02,1.21-6.26-1.95-6.32l-37.64-0.81 c-1.4-0.03-2.63-0.97-3.09-2.37L67.53,6.66C67.01,5.09,65.69,4.3,64.38,4.3L64.38,4.3z"
         style="fill:#424242;"
         id="path9" />
    </g>
  </g>
  <g
     id="Layer_2_x5F_复制"
     style="display:none;">
    <g
       style="display:inline;opacity:0.3;"
       id="g260">
      <g
         style="opacity:0.6;"
         id="g42">
        <circle
           cx="64"
           cy="64"
           r="28"
           style="opacity:0.61;fill:none;stroke:#000000;stroke-width:0.2625;stroke-miterlimit:10;"
           id="circle14" />
        <line
           style="opacity:0.61;fill:none;stroke:#000000;stroke-width:0.25;stroke-miterlimit:10;"
           x1="84"
           x2="84"
           y1="0"
           y2="128"
           id="line16" />
        <line
           style="opacity:0.61;fill:none;stroke:#000000;stroke-width:0.25;stroke-miterlimit:10;"
           x1="44"
           x2="44"
           y1="0"
           y2="128"
           id="line18" />
        <line
           style="opacity:0.61;fill:none;stroke:#000000;stroke-width:0.25;stroke-miterlimit:10;"
           x1="64"
           x2="64"
           y1="0"
           y2="128"
           id="line20" />
        <line
           style="opacity:0.61;fill:none;stroke:#000000;stroke-width:0.25;stroke-miterlimit:10;"
           x1="128"
           x2="0"
           y1="64"
           y2="64"
           id="line22" />
        <line
           style="opacity:0.61;fill:none;stroke:#000000;stroke-width:0.25;stroke-miterlimit:10;"
           x1="128"
           x2="0"
           y1="44"
           y2="44"
           id="line24" />
        <line
           style="opacity:0.61;fill:none;stroke:#000000;stroke-width:0.25;stroke-miterlimit:10;"
           x1="128"
           x2="0"
           y1="83.75"
           y2="83.75"
           id="line26" />
        <line
           style="opacity:0.61;fill:none;stroke:#000000;stroke-width:0.25;stroke-miterlimit:10;"
           x1="128"
           x2="0"
           y1="128"
           y2="0"
           id="line28" />
        <line
           style="opacity:0.61;fill:none;stroke:#000000;stroke-width:0.25;stroke-miterlimit:10;"
           x1="0"
           x2="128"
           y1="128"
           y2="0"
           id="line30" />
        <g
           style="opacity:0.61;"
           id="g34">
          <path
             d="M64,4.26c32.94,0,59.74,26.8,59.74,59.74S96.94,123.74,64,123.74S4.26,96.94,4.26,64S31.06,4.26,64,4.26 M64,4 C30.86,4,4,30.86,4,64c0,33.14,26.86,60,60,60c33.14,0,60-26.86,60-60C124,30.86,97.14,4,64,4L64,4z"
             id="path32" />
        </g>
        <path
           d="M107.97,115.97H20.03 c-4.42,0-8.03-3.61-8.03-8.03V20.03c0-4.42,3.61-8.03,8.03-8.03h87.94c4.42,0,8.03,3.61,8.03,8.03v87.91 C116,112.36,112.39,115.97,107.97,115.97z"
           style="opacity:0.61;fill:none;stroke:#000000;stroke-width:0.2578;stroke-miterlimit:10;"
           id="path36" />
        <path
           d="M99.75,124H28 c-4.4,0-8-3.6-8-8V12c0-4.4,3.6-8,8-8h71.75c4.4,0,8,3.6,8,8v104C107.75,120.4,104.15,124,99.75,124z"
           style="opacity:0.61;fill:none;stroke:#000000;stroke-width:0.2567;stroke-miterlimit:10;"
           id="path38" />
        <path
           d="M113.77,108H14.23 C8.6,108,4,103.4,4,97.77V30.28c0-5.63,4.6-10.23,10.23-10.23h99.54c5.63,0,10.23,4.6,10.23,10.23v67.48 C124,103.4,119.4,108,113.77,108z"
           style="opacity:0.61;fill:none;stroke:#000000;stroke-width:0.2627;stroke-miterlimit:10;"
           id="path40" />
      </g>
      <g
         id="g258">
        <g
           style="opacity:0.2;"
           id="g246">
          <defs
             id="defs45">
            <rect
               id="SVGID_4_"
               height="128"
               style="opacity:0.2;"
               width="128" />
          </defs>
          <clipPath
             id="SVGID_2_">
            <use
               style="overflow:visible;"
               xlink:href="#SVGID_4_"
               id="use47" />
          </clipPath>
          <g
             style="clip-path:url(#SVGID_2_);"
             clip-path="url(#SVGID_2_)"
             id="g244">
            <g
               id="g144">
              <line
                 style="fill:none;stroke:#000000;stroke-width:0.25;stroke-miterlimit:10;"
                 x1="-28"
                 x2="-28"
                 y1="160"
                 y2="-32"
                 id="line50" />
              <line
                 style="fill:none;stroke:#000000;stroke-width:0.25;stroke-miterlimit:10;"
                 x1="-24"
                 x2="-24"
                 y1="160"
                 y2="-32"
                 id="line52" />
              <line
                 style="fill:none;stroke:#000000;stroke-width:0.25;stroke-miterlimit:10;"
                 x1="-20"
                 x2="-20"
                 y1="160"
                 y2="-32"
                 id="line54" />
              <line
                 style="fill:none;stroke:#000000;stroke-width:0.25;stroke-miterlimit:10;"
                 x1="-16"
                 x2="-16"
                 y1="160"
                 y2="-32"
                 id="line56" />
              <line
                 style="fill:none;stroke:#000000;stroke-width:0.25;stroke-miterlimit:10;"
                 x1="-12"
                 x2="-12"
                 y1="160"
                 y2="-32"
                 id="line58" />
              <line
                 style="fill:none;stroke:#000000;stroke-width:0.25;stroke-miterlimit:10;"
                 x1="-8"
                 x2="-8"
                 y1="160"
                 y2="-32"
                 id="line60" />
              <line
                 style="fill:none;stroke:#000000;stroke-width:0.25;stroke-miterlimit:10;"
                 x1="-4"
                 x2="-4"
                 y1="160"
                 y2="-32"
                 id="line62" />
              <line
                 style="fill:none;stroke:#000000;stroke-width:0.25;stroke-miterlimit:10;"
                 x1="0"
                 x2="0"
                 y1="160"
                 y2="-32"
                 id="line64" />
              <line
                 style="fill:none;stroke:#000000;stroke-width:0.25;stroke-miterlimit:10;"
                 x1="4"
                 x2="4"
                 y1="160"
                 y2="-32"
                 id="line66" />
              <line
                 style="fill:none;stroke:#000000;stroke-width:0.25;stroke-miterlimit:10;"
                 x1="8"
                 x2="8"
                 y1="160"
                 y2="-32"
                 id="line68" />
              <line
                 style="fill:none;stroke:#000000;stroke-width:0.25;stroke-miterlimit:10;"
                 x1="12"
                 x2="12"
                 y1="160"
                 y2="-32"
                 id="line70" />
              <line
                 style="fill:none;stroke:#000000;stroke-width:0.25;stroke-miterlimit:10;"
                 x1="16"
                 x2="16"
                 y1="160"
                 y2="-32"
                 id="line72" />
              <line
                 style="fill:none;stroke:#000000;stroke-width:0.25;stroke-miterlimit:10;"
                 x1="20"
                 x2="20"
                 y1="160"
                 y2="-32"
                 id="line74" />
              <line
                 style="fill:none;stroke:#000000;stroke-width:0.25;stroke-miterlimit:10;"
                 x1="24"
                 x2="24"
                 y1="160"
                 y2="-32"
                 id="line76" />
              <line
                 style="fill:none;stroke:#000000;stroke-width:0.25;stroke-miterlimit:10;"
                 x1="28"
                 x2="28"
                 y1="160"
                 y2="-32"
                 id="line78" />
              <line
                 style="fill:none;stroke:#000000;stroke-width:0.25;stroke-miterlimit:10;"
                 x1="32"
                 x2="32"
                 y1="160"
                 y2="-32"
                 id="line80" />
              <line
                 style="fill:none;stroke:#000000;stroke-width:0.25;stroke-miterlimit:10;"
                 x1="36"
                 x2="36"
                 y1="160"
                 y2="-32"
                 id="line82" />
              <line
                 style="fill:none;stroke:#000000;stroke-width:0.25;stroke-miterlimit:10;"
                 x1="40"
                 x2="40"
                 y1="160"
                 y2="-32"
                 id="line84" />
              <line
                 style="fill:none;stroke:#000000;stroke-width:0.25;stroke-miterlimit:10;"
                 x1="44"
                 x2="44"
                 y1="160"
                 y2="-32"
                 id="line86" />
              <line
                 style="fill:none;stroke:#000000;stroke-width:0.25;stroke-miterlimit:10;"
                 x1="48"
                 x2="48"
                 y1="160"
                 y2="-32"
                 id="line88" />
              <line
                 style="fill:none;stroke:#000000;stroke-width:0.25;stroke-miterlimit:10;"
                 x1="52"
                 x2="52"
                 y1="160"
                 y2="-32"
                 id="line90" />
              <line
                 style="fill:none;stroke:#000000;stroke-width:0.25;stroke-miterlimit:10;"
                 x1="56"
                 x2="56"
                 y1="160"
                 y2="-32"
                 id="line92" />
              <line
                 style="fill:none;stroke:#000000;stroke-width:0.25;stroke-miterlimit:10;"
                 x1="60"
                 x2="60"
                 y1="160"
                 y2="-32"
                 id="line94" />
              <line
                 style="fill:none;stroke:#000000;stroke-width:0.25;stroke-miterlimit:10;"
                 x1="64"
                 x2="64"
                 y1="160"
                 y2="-32"
                 id="line96" />
              <line
                 style="fill:none;stroke:#000000;stroke-width:0.25;stroke-miterlimit:10;"
                 x1="68"
                 x2="68"
                 y1="160"
                 y2="-32"
                 id="line98" />
              <line
                 style="fill:none;stroke:#000000;stroke-width:0.25;stroke-miterlimit:10;"
                 x1="72"
                 x2="72"
                 y1="160"
                 y2="-32"
                 id="line100" />
              <line
                 style="fill:none;stroke:#000000;stroke-width:0.25;stroke-miterlimit:10;"
                 x1="76"
                 x2="76"
                 y1="160"
                 y2="-32"
                 id="line102" />
              <line
                 style="fill:none;stroke:#000000;stroke-width:0.25;stroke-miterlimit:10;"
                 x1="80"
                 x2="80"
                 y1="160"
                 y2="-32"
                 id="line104" />
              <line
                 style="fill:none;stroke:#000000;stroke-width:0.25;stroke-miterlimit:10;"
                 x1="84"
                 x2="84"
                 y1="160"
                 y2="-32"
                 id="line106" />
              <line
                 style="fill:none;stroke:#000000;stroke-width:0.25;stroke-miterlimit:10;"
                 x1="88"
                 x2="88"
                 y1="160"
                 y2="-32"
                 id="line108" />
              <line
                 style="fill:none;stroke:#000000;stroke-width:0.25;stroke-miterlimit:10;"
                 x1="92"
                 x2="92"
                 y1="160"
                 y2="-32"
                 id="line110" />
              <line
                 style="fill:none;stroke:#000000;stroke-width:0.25;stroke-miterlimit:10;"
                 x1="96"
                 x2="96"
                 y1="160"
                 y2="-32"
                 id="line112" />
              <line
                 style="fill:none;stroke:#000000;stroke-width:0.25;stroke-miterlimit:10;"
                 x1="100"
                 x2="100"
                 y1="160"
                 y2="-32"
                 id="line114" />
              <line
                 style="fill:none;stroke:#000000;stroke-width:0.25;stroke-miterlimit:10;"
                 x1="104"
                 x2="104"
                 y1="160"
                 y2="-32"
                 id="line116" />
              <line
                 style="fill:none;stroke:#000000;stroke-width:0.25;stroke-miterlimit:10;"
                 x1="108"
                 x2="108"
                 y1="160"
                 y2="-32"
                 id="line118" />
              <line
                 style="fill:none;stroke:#000000;stroke-width:0.25;stroke-miterlimit:10;"
                 x1="112"
                 x2="112"
                 y1="160"
                 y2="-32"
                 id="line120" />
              <line
                 style="fill:none;stroke:#000000;stroke-width:0.25;stroke-miterlimit:10;"
                 x1="116"
                 x2="116"
                 y1="160"
                 y2="-32"
                 id="line122" />
              <line
                 style="fill:none;stroke:#000000;stroke-width:0.25;stroke-miterlimit:10;"
                 x1="120"
                 x2="120"
                 y1="160"
                 y2="-32"
                 id="line124" />
              <line
                 style="fill:none;stroke:#000000;stroke-width:0.25;stroke-miterlimit:10;"
                 x1="124"
                 x2="124"
                 y1="160"
                 y2="-32"
                 id="line126" />
              <line
                 style="fill:none;stroke:#000000;stroke-width:0.25;stroke-miterlimit:10;"
                 x1="128"
                 x2="128"
                 y1="160"
                 y2="-32"
                 id="line128" />
              <line
                 style="fill:none;stroke:#000000;stroke-width:0.25;stroke-miterlimit:10;"
                 x1="132"
                 x2="132"
                 y1="160"
                 y2="-32"
                 id="line130" />
              <line
                 style="fill:none;stroke:#000000;stroke-width:0.25;stroke-miterlimit:10;"
                 x1="136"
                 x2="136"
                 y1="160"
                 y2="-32"
                 id="line132" />
              <line
                 style="fill:none;stroke:#000000;stroke-width:0.25;stroke-miterlimit:10;"
                 x1="137"
                 x2="137"
                 y1="166.05"
                 y2="-25.95"
                 id="line134" />
              <line
                 style="fill:none;stroke:#000000;stroke-width:0.25;stroke-miterlimit:10;"
                 x1="144"
                 x2="144"
                 y1="160"
                 y2="-32"
                 id="line136" />
              <line
                 style="fill:none;stroke:#000000;stroke-width:0.25;stroke-miterlimit:10;"
                 x1="148"
                 x2="148"
                 y1="160"
                 y2="-32"
                 id="line138" />
              <line
                 style="fill:none;stroke:#000000;stroke-width:0.25;stroke-miterlimit:10;"
                 x1="152"
                 x2="152"
                 y1="160"
                 y2="-32"
                 id="line140" />
              <line
                 style="fill:none;stroke:#000000;stroke-width:0.25;stroke-miterlimit:10;"
                 x1="156"
                 x2="156"
                 y1="160"
                 y2="-32"
                 id="line142" />
            </g>
            <g
               id="g240">
              <line
                 style="fill:none;stroke:#000000;stroke-width:0.25;stroke-miterlimit:10;"
                 x1="-32"
                 x2="160"
                 y1="-28"
                 y2="-28"
                 id="line146" />
              <line
                 style="fill:none;stroke:#000000;stroke-width:0.25;stroke-miterlimit:10;"
                 x1="-32"
                 x2="160"
                 y1="-24"
                 y2="-24"
                 id="line148" />
              <line
                 style="fill:none;stroke:#000000;stroke-width:0.25;stroke-miterlimit:10;"
                 x1="-32"
                 x2="160"
                 y1="-20"
                 y2="-20"
                 id="line150" />
              <line
                 style="fill:none;stroke:#000000;stroke-width:0.25;stroke-miterlimit:10;"
                 x1="-32"
                 x2="160"
                 y1="-16"
                 y2="-16"
                 id="line152" />
              <line
                 style="fill:none;stroke:#000000;stroke-width:0.25;stroke-miterlimit:10;"
                 x1="-32"
                 x2="160"
                 y1="-12"
                 y2="-12"
                 id="line154" />
              <line
                 style="fill:none;stroke:#000000;stroke-width:0.25;stroke-miterlimit:10;"
                 x1="-32"
                 x2="160"
                 y1="-8"
                 y2="-8"
                 id="line156" />
              <line
                 style="fill:none;stroke:#000000;stroke-width:0.25;stroke-miterlimit:10;"
                 x1="-32"
                 x2="160"
                 y1="-4"
                 y2="-4"
                 id="line158" />
              <line
                 style="fill:none;stroke:#000000;stroke-width:0.25;stroke-miterlimit:10;"
                 x1="-32"
                 x2="160"
                 y1="0"
                 y2="0"
                 id="line160" />
              <line
                 style="fill:none;stroke:#000000;stroke-width:0.25;stroke-miterlimit:10;"
                 x1="-32"
                 x2="160"
                 y1="4"
                 y2="4"
                 id="line162" />
              <line
                 style="fill:none;stroke:#000000;stroke-width:0.25;stroke-miterlimit:10;"
                 x1="-32"
                 x2="160"
                 y1="8"
                 y2="8"
                 id="line164" />
              <line
                 style="fill:none;stroke:#000000;stroke-width:0.25;stroke-miterlimit:10;"
                 x1="-32"
                 x2="160"
                 y1="12"
                 y2="12"
                 id="line166" />
              <line
                 style="fill:none;stroke:#000000;stroke-width:0.25;stroke-miterlimit:10;"
                 x1="-32"
                 x2="160"
                 y1="16"
                 y2="16"
                 id="line168" />
              <line
                 style="fill:none;stroke:#000000;stroke-width:0.25;stroke-miterlimit:10;"
                 x1="-32"
                 x2="160"
                 y1="20"
                 y2="20"
                 id="line170" />
              <line
                 style="fill:none;stroke:#000000;stroke-width:0.25;stroke-miterlimit:10;"
                 x1="-32"
                 x2="160"
                 y1="24"
                 y2="24"
                 id="line172" />
              <line
                 style="fill:none;stroke:#000000;stroke-width:0.25;stroke-miterlimit:10;"
                 x1="-32"
                 x2="160"
                 y1="28"
                 y2="28"
                 id="line174" />
              <line
                 style="fill:none;stroke:#000000;stroke-width:0.25;stroke-miterlimit:10;"
                 x1="-32"
                 x2="160"
                 y1="32"
                 y2="32"
                 id="line176" />
              <line
                 style="fill:none;stroke:#000000;stroke-width:0.25;stroke-miterlimit:10;"
                 x1="-32"
                 x2="160"
                 y1="36"
                 y2="36"
                 id="line178" />
              <line
                 style="fill:none;stroke:#000000;stroke-width:0.25;stroke-miterlimit:10;"
                 x1="-32"
                 x2="160"
                 y1="40"
                 y2="40"
                 id="line180" />
              <line
                 style="fill:none;stroke:#000000;stroke-width:0.25;stroke-miterlimit:10;"
                 x1="-32"
                 x2="160"
                 y1="44"
                 y2="44"
                 id="line182" />
              <line
                 style="fill:none;stroke:#000000;stroke-width:0.25;stroke-miterlimit:10;"
                 x1="-32"
                 x2="160"
                 y1="48"
                 y2="48"
                 id="line184" />
              <line
                 style="fill:none;stroke:#000000;stroke-width:0.25;stroke-miterlimit:10;"
                 x1="-32"
                 x2="160"
                 y1="52"
                 y2="52"
                 id="line186" />
              <line
                 style="fill:none;stroke:#000000;stroke-width:0.25;stroke-miterlimit:10;"
                 x1="-32"
                 x2="160"
                 y1="56"
                 y2="56"
                 id="line188" />
              <line
                 style="fill:none;stroke:#000000;stroke-width:0.25;stroke-miterlimit:10;"
                 x1="-32"
                 x2="160"
                 y1="60"
                 y2="60"
                 id="line190" />
              <line
                 style="fill:none;stroke:#000000;stroke-width:0.25;stroke-miterlimit:10;"
                 x1="-32"
                 x2="160"
                 y1="64"
                 y2="64"
                 id="line192" />
              <line
                 style="fill:none;stroke:#000000;stroke-width:0.25;stroke-miterlimit:10;"
                 x1="-32"
                 x2="160"
                 y1="68"
                 y2="68"
                 id="line194" />
              <line
                 style="fill:none;stroke:#000000;stroke-width:0.25;stroke-miterlimit:10;"
                 x1="-32"
                 x2="160"
                 y1="72"
                 y2="72"
                 id="line196" />
              <line
                 style="fill:none;stroke:#000000;stroke-width:0.25;stroke-miterlimit:10;"
                 x1="-32"
                 x2="160"
                 y1="76"
                 y2="76"
                 id="line198" />
              <line
                 style="fill:none;stroke:#000000;stroke-width:0.25;stroke-miterlimit:10;"
                 x1="-32"
                 x2="160"
                 y1="80"
                 y2="80"
                 id="line200" />
              <line
                 style="fill:none;stroke:#000000;stroke-width:0.25;stroke-miterlimit:10;"
                 x1="-32"
                 x2="160"
                 y1="84"
                 y2="84"
                 id="line202" />
              <line
                 style="fill:none;stroke:#000000;stroke-width:0.25;stroke-miterlimit:10;"
                 x1="-32"
                 x2="160"
                 y1="88"
                 y2="88"
                 id="line204" />
              <line
                 style="fill:none;stroke:#000000;stroke-width:0.25;stroke-miterlimit:10;"
                 x1="-32"
                 x2="160"
                 y1="92"
                 y2="92"
                 id="line206" />
              <line
                 style="fill:none;stroke:#000000;stroke-width:0.25;stroke-miterlimit:10;"
                 x1="-32"
                 x2="160"
                 y1="96"
                 y2="96"
                 id="line208" />
              <line
                 style="fill:none;stroke:#000000;stroke-width:0.25;stroke-miterlimit:10;"
                 x1="-32"
                 x2="160"
                 y1="100"
                 y2="100"
                 id="line210" />
              <line
                 style="fill:none;stroke:#000000;stroke-width:0.25;stroke-miterlimit:10;"
                 x1="-32"
                 x2="160"
                 y1="104"
                 y2="104"
                 id="line212" />
              <line
                 style="fill:none;stroke:#000000;stroke-width:0.25;stroke-miterlimit:10;"
                 x1="-32"
                 x2="160"
                 y1="108"
                 y2="108"
                 id="line214" />
              <line
                 style="fill:none;stroke:#000000;stroke-width:0.25;stroke-miterlimit:10;"
                 x1="-32"
                 x2="160"
                 y1="112"
                 y2="112"
                 id="line216" />
              <line
                 style="fill:none;stroke:#000000;stroke-width:0.25;stroke-miterlimit:10;"
                 x1="-32"
                 x2="160"
                 y1="116"
                 y2="116"
                 id="line218" />
              <line
                 style="fill:none;stroke:#000000;stroke-width:0.25;stroke-miterlimit:10;"
                 x1="-32"
                 x2="160"
                 y1="120"
                 y2="120"
                 id="line220" />
              <line
                 style="fill:none;stroke:#000000;stroke-width:0.25;stroke-miterlimit:10;"
                 x1="-32"
                 x2="160"
                 y1="124"
                 y2="124"
                 id="line222" />
              <line
                 style="fill:none;stroke:#000000;stroke-width:0.25;stroke-miterlimit:10;"
                 x1="-32"
                 x2="160"
                 y1="128"
                 y2="128"
                 id="line224" />
              <line
                 style="fill:none;stroke:#000000;stroke-width:0.25;stroke-miterlimit:10;"
                 x1="-32"
                 x2="160"
                 y1="132"
                 y2="132"
                 id="line226" />
              <line
                 style="fill:none;stroke:#000000;stroke-width:0.25;stroke-miterlimit:10;"
                 x1="-32"
                 x2="160"
                 y1="136"
                 y2="136"
                 id="line228" />
              <line
                 style="fill:none;stroke:#000000;stroke-width:0.25;stroke-miterlimit:10;"
                 x1="-32"
                 x2="160"
                 y1="140"
                 y2="140"
                 id="line230" />
              <line
                 style="fill:none;stroke:#000000;stroke-width:0.25;stroke-miterlimit:10;"
                 x1="-32"
                 x2="160"
                 y1="144"
                 y2="144"
                 id="line232" />
              <line
                 style="fill:none;stroke:#000000;stroke-width:0.25;stroke-miterlimit:10;"
                 x1="-32"
                 x2="160"
                 y1="148"
                 y2="148"
                 id="line234" />
              <line
                 style="fill:none;stroke:#000000;stroke-width:0.25;stroke-miterlimit:10;"
                 x1="-32"
                 x2="160"
                 y1="152"
                 y2="152"
                 id="line236" />
              <line
                 style="fill:none;stroke:#000000;stroke-width:0.25;stroke-miterlimit:10;"
                 x1="-32"
                 x2="160"
                 y1="156"
                 y2="156"
                 id="line238" />
            </g>
            <path
               d="M159.75-31.75v191.5h-191.5v-191.5H159.75 M160-32H-32v192h192V-32L160-32z"
               id="path242" />
          </g>
        </g>
        <g
           id="g256">
          <rect
             height="128"
             style="opacity:0.3;fill:#F44336;"
             width="4"
             id="rect248" />
          <rect
             height="128"
             style="opacity:0.3;fill:#F44336;"
             width="4"
             x="124"
             id="rect250" />
          <rect
             height="120"
             style="opacity:0.3;fill:#F44336;"
             transform="matrix(-1.836970e-16 1 -1 -1.836970e-16 66 -62)"
             width="4"
             x="62"
             y="-58"
             id="rect252" />
          <rect
             height="120"
             style="opacity:0.3;fill:#F44336;"
             transform="matrix(-1.836970e-16 1 -1 -1.836970e-16 190 62)"
             width="4"
             x="62"
             y="66"
             id="rect254" />
        </g>
      </g>
    </g>
  </g>
</svg>
